{
  "asset": { "version": "2.0", "generator": "wurenji-offline-model" },
  "extensionsUsed": ["KHR_materials_unlit"],
  "scene": 0,
  "scenes": [{ "nodes": [0, 1, 2, 3, 4, 5, 6, 7] }],
  "nodes": [
    { "name": "Body", "mesh": 0, "scale": [1.2, 0.35, 0.75] },
    { "name": "ArmA", "mesh": 1, "scale": [1.9, 0.1, 0.1], "rotation": [0, 0.3826834, 0, 0.9238795] },
    { "name": "ArmB", "mesh": 1, "scale": [1.9, 0.1, 0.1], "rotation": [0, -0.3826834, 0, 0.9238795] },
    { "name": "RotorFL", "mesh": 2, "translation": [-1.35, 0.22, -1.35], "scale": [0.48, 0.06, 0.48] },
    { "name": "RotorFR", "mesh": 2, "translation": [1.35, 0.22, -1.35], "scale": [0.48, 0.06, 0.48] },
    { "name": "RotorRL", "mesh": 2, "translation": [-1.35, 0.22, 1.35], "scale": [0.48, 0.06, 0.48] },
    { "name": "RotorRR", "mesh": 2, "translation": [1.35, 0.22, 1.35], "scale": [0.48, 0.06, 0.48] },
    { "name": "Nose", "mesh": 3, "translation": [0, 0.03, -0.95], "scale": [0.28, 0.24, 0.34] }
  ],
  "meshes": [
    { "primitives": [{ "attributes": { "POSITION": 0 }, "indices": 1, "material": 0 }] },
    { "primitives": [{ "attributes": { "POSITION": 0 }, "indices": 1, "material": 1 }] },
    { "primitives": [{ "attributes": { "POSITION": 0 }, "indices": 1, "material": 2 }] },
    { "primitives": [{ "attributes": { "POSITION": 0 }, "indices": 1, "material": 3 }] }
  ],
  "materials": [
    { "name": "AircraftBody", "pbrMetallicRoughness": { "baseColorFactor": [0.12, 0.42, 0.31, 1], "metallicFactor": 0.25, "roughnessFactor": 0.6 }, "extensions": { "KHR_materials_unlit": {} } },
    { "name": "AircraftArms", "pbrMetallicRoughness": { "baseColorFactor": [0.08, 0.12, 0.1, 1], "metallicFactor": 0.35, "roughnessFactor": 0.55 }, "extensions": { "KHR_materials_unlit": {} } },
    { "name": "Rotors", "pbrMetallicRoughness": { "baseColorFactor": [0.03, 0.05, 0.04, 0.82], "metallicFactor": 0.1, "roughnessFactor": 0.75 }, "alphaMode": "BLEND", "doubleSided": true, "extensions": { "KHR_materials_unlit": {} } },
    { "name": "NoseMarker", "pbrMetallicRoughness": { "baseColorFactor": [0.95, 0.62, 0.12, 1], "metallicFactor": 0, "roughnessFactor": 0.5 }, "extensions": { "KHR_materials_unlit": {} } }
  ],
  "buffers": [{ "byteLength": 168, "uri": "data:application/octet-stream;base64," }],
  "bufferViews": [
    { "buffer": 0, "byteOffset": 0, "byteLength": 96, "target": 34962 },
    { "buffer": 0, "byteOffset": 96, "byteLength": 72, "target": 34963 }
  ],
  "accessors": [
    { "bufferView": 0, "componentType": 5126, "count": 8, "type": "VEC3", "min": [-1, -1, -1], "max": [1, 1, 1] },
    { "bufferView": 1, "componentType": 5123, "count": 36, "type": "SCALAR" }
  ]
}
